<svg xmlns="http://www.w3.org/2000/svg" viewBox="0 0 24 24"><path fill="#fff" d="M20.85,5.15l-5-5A.5.5,0,0,0,15.5,0H5A2,2,0,0,0,3,2V22a2,2,0,0,0,2,2H19a2,2,0,0,0,2-2V5.5A.5.5,0,0,0,20.85,5.15Zm-11,11a.5.5,0,0,1-.64.77l-3-2.5a.5.5,0,0,1,0-.77l3-2.5a.5.5,0,0,1,.64.77L7.28,14ZM14,10.7l-3,7a.5.5,0,0,1-.46.3.49.49,0,0,1-.2,0A.5.5,0,0,1,10,17.3l3-7a.5.5,0,0,1,.92.39Zm3.86,3.69-3,2.5a.5.5,0,0,1-.64-.77L16.72,14l-2.54-2.12a.5.5,0,0,1,.64-.77l3,2.5a.5.5,0,0,1,0,.77ZM17,5a1,1,0,0,1-1-1V1.71L19.29,5Z" data-name="Code File 2"/></svg>