<svg xmlns="http://www.w3.org/2000/svg" viewBox="0 0 24 24"><g data-name="Location Map"><path fill="#fff" d="M20 11a4 4 0 00-4 4c0 2 3.23 6.32 3.6 6.8a.5.5 0 00.79 0C20.77 21.32 24 17 24 15A4 4 0 0020 11zm0 5a1 1 0 111-1A1 1 0 0120 16zM6.64 3.73L.64 2A.5.5 0 000 2.5v15A.5.5 0 00.36 18l6 1.71.14 0a.5.5 0 00.5-.5v-15A.5.5 0 006.64 3.73zM13.36 2.3l-5 1.43A.5.5 0 008 4.21v15a.5.5 0 00.5.5l.14 0 5-1.43a.5.5 0 00.36-.48v-15a.5.5 0 00-.64-.48z"/><path fill="#fff" d="M21.36,10.19A.5.5,0,0,0,22,9.71V4.5A.5.5,0,0,0,21.64,4l-6-1.71a.5.5,0,0,0-.64.48v9.06a.5.5,0,0,0,.35.48l.15,0a.5.5,0,0,0,.41-.21A5,5,0,0,1,21.36,10.19Z"/></g></svg>